<mxfile host="Electron" modified="2023-05-04T20:03:44.425Z" agent="Mozilla/5.0 (Windows NT 10.0; Win64; x64) AppleWebKit/537.36 (KHTML, like Gecko) draw.io/21.1.2 Chrome/106.0.5249.199 Electron/21.4.3 Safari/537.36" etag="aQjEv_i50mtuFvwnqQsS" version="21.1.2" type="device">
  <diagram id="R2lEEEUBdFMjLlhIrx00" name="Page-1">
    <mxGraphModel dx="364" dy="215" grid="1" gridSize="10" guides="1" tooltips="1" connect="1" arrows="1" fold="1" page="1" pageScale="1" pageWidth="850" pageHeight="1100" math="0" shadow="0" extFonts="Permanent Marker^https://fonts.googleapis.com/css?family=Permanent+Marker">
      <root>
        <mxCell id="0" />
        <mxCell id="1" parent="0" />
        <mxCell id="_UK4-lh9YkA2kkaVZ_zC-9" style="rounded=0;orthogonalLoop=1;jettySize=auto;html=1;exitX=0;exitY=0.5;exitDx=0;exitDy=0;entryX=1;entryY=0.5;entryDx=0;entryDy=0;endArrow=none;endFill=0;" parent="1" source="_UK4-lh9YkA2kkaVZ_zC-3" target="_UK4-lh9YkA2kkaVZ_zC-17" edge="1">
          <mxGeometry relative="1" as="geometry">
            <mxPoint x="160" y="740" as="targetPoint" />
          </mxGeometry>
        </mxCell>
        <mxCell id="_UK4-lh9YkA2kkaVZ_zC-10" style="rounded=0;orthogonalLoop=1;jettySize=auto;html=1;exitX=0;exitY=0.25;exitDx=0;exitDy=0;entryX=1;entryY=0.5;entryDx=0;entryDy=0;endArrow=none;endFill=0;" parent="1" source="_UK4-lh9YkA2kkaVZ_zC-3" target="_UK4-lh9YkA2kkaVZ_zC-16" edge="1">
          <mxGeometry relative="1" as="geometry">
            <mxPoint x="120" y="700" as="targetPoint" />
          </mxGeometry>
        </mxCell>
        <mxCell id="_UK4-lh9YkA2kkaVZ_zC-11" style="rounded=0;orthogonalLoop=1;jettySize=auto;html=1;exitX=0;exitY=0;exitDx=0;exitDy=0;entryX=1;entryY=0.5;entryDx=0;entryDy=0;endArrow=none;endFill=0;" parent="1" source="_UK4-lh9YkA2kkaVZ_zC-3" target="_UK4-lh9YkA2kkaVZ_zC-15" edge="1">
          <mxGeometry relative="1" as="geometry">
            <mxPoint x="160" y="640" as="targetPoint" />
          </mxGeometry>
        </mxCell>
        <mxCell id="_UK4-lh9YkA2kkaVZ_zC-14" style="rounded=0;orthogonalLoop=1;jettySize=auto;html=1;exitX=0.25;exitY=1;exitDx=0;exitDy=0;entryX=1;entryY=0;entryDx=0;entryDy=0;endArrow=none;endFill=0;" parent="1" source="_UK4-lh9YkA2kkaVZ_zC-3" target="_UK4-lh9YkA2kkaVZ_zC-19" edge="1">
          <mxGeometry relative="1" as="geometry">
            <mxPoint x="160" y="840" as="targetPoint" />
          </mxGeometry>
        </mxCell>
        <mxCell id="_UK4-lh9YkA2kkaVZ_zC-3" value="Site" style="whiteSpace=wrap;html=1;align=center;" parent="1" vertex="1">
          <mxGeometry x="200" y="720" width="100" height="40" as="geometry" />
        </mxCell>
        <mxCell id="_UK4-lh9YkA2kkaVZ_zC-8" value="" style="endArrow=none;html=1;rounded=0;entryX=1;entryY=0.5;entryDx=0;entryDy=0;exitX=0;exitY=1;exitDx=0;exitDy=0;endFill=0;" parent="1" source="_UK4-lh9YkA2kkaVZ_zC-3" target="_UK4-lh9YkA2kkaVZ_zC-18" edge="1">
          <mxGeometry width="50" height="50" relative="1" as="geometry">
            <mxPoint x="280" y="720" as="sourcePoint" />
            <mxPoint x="160" y="790" as="targetPoint" />
          </mxGeometry>
        </mxCell>
        <mxCell id="_UK4-lh9YkA2kkaVZ_zC-15" value="address" style="ellipse;whiteSpace=wrap;html=1;align=center;fontStyle=4;" parent="1" vertex="1">
          <mxGeometry x="30" y="629.16" width="100" height="40" as="geometry" />
        </mxCell>
        <mxCell id="_UK4-lh9YkA2kkaVZ_zC-16" value="transport_zone" style="ellipse;whiteSpace=wrap;html=1;align=center;" parent="1" vertex="1">
          <mxGeometry x="20" y="680" width="100" height="40" as="geometry" />
        </mxCell>
        <mxCell id="_UK4-lh9YkA2kkaVZ_zC-17" value="contact_name" style="ellipse;whiteSpace=wrap;html=1;align=center;" parent="1" vertex="1">
          <mxGeometry x="30" y="730" width="100" height="40" as="geometry" />
        </mxCell>
        <mxCell id="_UK4-lh9YkA2kkaVZ_zC-18" value="contact_phone" style="ellipse;whiteSpace=wrap;html=1;align=center;" parent="1" vertex="1">
          <mxGeometry x="60" y="780" width="100" height="40" as="geometry" />
        </mxCell>
        <mxCell id="_UK4-lh9YkA2kkaVZ_zC-19" value="site_type" style="ellipse;whiteSpace=wrap;html=1;align=center;" parent="1" vertex="1">
          <mxGeometry x="120" y="820" width="100" height="40" as="geometry" />
        </mxCell>
        <mxCell id="_UK4-lh9YkA2kkaVZ_zC-23" style="rounded=0;orthogonalLoop=1;jettySize=auto;html=1;exitX=0.5;exitY=0;exitDx=0;exitDy=0;entryX=0.443;entryY=1.021;entryDx=0;entryDy=0;endArrow=none;endFill=0;entryPerimeter=0;" parent="1" source="_UK4-lh9YkA2kkaVZ_zC-20" target="_UK4-lh9YkA2kkaVZ_zC-22" edge="1">
          <mxGeometry relative="1" as="geometry" />
        </mxCell>
        <mxCell id="_UK4-lh9YkA2kkaVZ_zC-24" style="rounded=0;orthogonalLoop=1;jettySize=auto;html=1;exitX=1;exitY=0.5;exitDx=0;exitDy=0;entryX=0;entryY=0.5;entryDx=0;entryDy=0;endArrow=none;endFill=0;" parent="1" source="_UK4-lh9YkA2kkaVZ_zC-20" target="_UK4-lh9YkA2kkaVZ_zC-21" edge="1">
          <mxGeometry relative="1" as="geometry" />
        </mxCell>
        <mxCell id="_UK4-lh9YkA2kkaVZ_zC-26" style="rounded=0;orthogonalLoop=1;jettySize=auto;html=1;exitX=1;exitY=0;exitDx=0;exitDy=0;entryX=0;entryY=0.5;entryDx=0;entryDy=0;endArrow=none;endFill=0;" parent="1" source="_UK4-lh9YkA2kkaVZ_zC-20" target="_UK4-lh9YkA2kkaVZ_zC-25" edge="1">
          <mxGeometry relative="1" as="geometry" />
        </mxCell>
        <mxCell id="_UK4-lh9YkA2kkaVZ_zC-30" style="rounded=0;orthogonalLoop=1;jettySize=auto;html=1;exitX=0.5;exitY=0;exitDx=0;exitDy=0;entryX=0.5;entryY=1;entryDx=0;entryDy=0;endArrow=none;endFill=0;" parent="1" source="_UK4-lh9YkA2kkaVZ_zC-20" target="_UK4-lh9YkA2kkaVZ_zC-27" edge="1">
          <mxGeometry relative="1" as="geometry" />
        </mxCell>
        <mxCell id="_UK4-lh9YkA2kkaVZ_zC-31" style="rounded=0;orthogonalLoop=1;jettySize=auto;html=1;exitX=0.5;exitY=1;exitDx=0;exitDy=0;entryX=0.5;entryY=0;entryDx=0;entryDy=0;endArrow=none;endFill=0;" parent="1" source="_UK4-lh9YkA2kkaVZ_zC-20" target="_UK4-lh9YkA2kkaVZ_zC-29" edge="1">
          <mxGeometry relative="1" as="geometry" />
        </mxCell>
        <mxCell id="_UK4-lh9YkA2kkaVZ_zC-20" value="Truck" style="whiteSpace=wrap;html=1;align=center;" parent="1" vertex="1">
          <mxGeometry x="585" y="499.15999999999997" width="100" height="40" as="geometry" />
        </mxCell>
        <mxCell id="_UK4-lh9YkA2kkaVZ_zC-21" value="model" style="ellipse;whiteSpace=wrap;html=1;align=center;" parent="1" vertex="1">
          <mxGeometry x="710" y="519.16" width="100" height="40" as="geometry" />
        </mxCell>
        <mxCell id="_UK4-lh9YkA2kkaVZ_zC-22" value="id" style="ellipse;whiteSpace=wrap;html=1;align=center;fontStyle=4;" parent="1" vertex="1">
          <mxGeometry x="650" y="569.16" width="100" height="40" as="geometry" />
        </mxCell>
        <mxCell id="_UK4-lh9YkA2kkaVZ_zC-25" value="base_weight" style="ellipse;whiteSpace=wrap;html=1;align=center;" parent="1" vertex="1">
          <mxGeometry x="710" y="459.15999999999997" width="100" height="40" as="geometry" />
        </mxCell>
        <mxCell id="_UK4-lh9YkA2kkaVZ_zC-27" value="max_weight" style="ellipse;whiteSpace=wrap;html=1;align=center;" parent="1" vertex="1">
          <mxGeometry x="590" y="429.15999999999997" width="100" height="40" as="geometry" />
        </mxCell>
        <mxCell id="_UK4-lh9YkA2kkaVZ_zC-29" value="cooling_capacity" style="ellipse;whiteSpace=wrap;html=1;align=center;" parent="1" vertex="1">
          <mxGeometry x="540" y="569.16" width="100" height="40" as="geometry" />
        </mxCell>
        <mxCell id="_UK4-lh9YkA2kkaVZ_zC-34" style="rounded=0;orthogonalLoop=1;jettySize=auto;html=1;exitX=0;exitY=0.5;exitDx=0;exitDy=0;entryX=1;entryY=0.5;entryDx=0;entryDy=0;endArrow=none;endFill=0;" parent="1" source="_UK4-lh9YkA2kkaVZ_zC-32" target="_UK4-lh9YkA2kkaVZ_zC-33" edge="1">
          <mxGeometry relative="1" as="geometry" />
        </mxCell>
        <mxCell id="_UK4-lh9YkA2kkaVZ_zC-32" value="ItemList" style="whiteSpace=wrap;html=1;align=center;" parent="1" vertex="1">
          <mxGeometry x="140" y="30" width="100" height="40" as="geometry" />
        </mxCell>
        <mxCell id="_UK4-lh9YkA2kkaVZ_zC-33" value="id" style="ellipse;whiteSpace=wrap;html=1;align=center;fontStyle=4;" parent="1" vertex="1">
          <mxGeometry x="20" y="30" width="100" height="40" as="geometry" />
        </mxCell>
        <mxCell id="_UK4-lh9YkA2kkaVZ_zC-39" style="rounded=0;orthogonalLoop=1;jettySize=auto;html=1;exitX=0.5;exitY=0;exitDx=0;exitDy=0;entryX=0.5;entryY=1;entryDx=0;entryDy=0;dashed=1;" parent="1" source="_UK4-lh9YkA2kkaVZ_zC-38" target="_UK4-lh9YkA2kkaVZ_zC-32" edge="1">
          <mxGeometry relative="1" as="geometry" />
        </mxCell>
        <mxCell id="yyWlpS814VZBV8G9H7lv-5" value="(1,1)" style="edgeLabel;html=1;align=center;verticalAlign=middle;resizable=0;points=[];" parent="_UK4-lh9YkA2kkaVZ_zC-39" vertex="1" connectable="0">
          <mxGeometry x="-0.4636" relative="1" as="geometry">
            <mxPoint y="-8" as="offset" />
          </mxGeometry>
        </mxCell>
        <mxCell id="_UK4-lh9YkA2kkaVZ_zC-70" style="rounded=0;orthogonalLoop=1;jettySize=auto;html=1;exitX=0;exitY=0;exitDx=0;exitDy=0;entryX=1;entryY=0.5;entryDx=0;entryDy=0;endArrow=none;endFill=0;" parent="1" source="_UK4-lh9YkA2kkaVZ_zC-40" target="_UK4-lh9YkA2kkaVZ_zC-43" edge="1">
          <mxGeometry relative="1" as="geometry" />
        </mxCell>
        <mxCell id="_UK4-lh9YkA2kkaVZ_zC-38" value="keeps items" style="shape=rhombus;perimeter=rhombusPerimeter;whiteSpace=wrap;html=1;align=center;dashed=1;" parent="1" vertex="1">
          <mxGeometry x="130" y="115" width="120" height="60" as="geometry" />
        </mxCell>
        <mxCell id="_UK4-lh9YkA2kkaVZ_zC-41" style="rounded=0;orthogonalLoop=1;jettySize=auto;html=1;exitX=0.5;exitY=0;exitDx=0;exitDy=0;endArrow=none;endFill=0;dashed=1;entryX=0.5;entryY=1;entryDx=0;entryDy=0;" parent="1" source="_UK4-lh9YkA2kkaVZ_zC-40" target="_UK4-lh9YkA2kkaVZ_zC-38" edge="1">
          <mxGeometry relative="1" as="geometry">
            <mxPoint x="210" y="135" as="targetPoint" />
          </mxGeometry>
        </mxCell>
        <mxCell id="yyWlpS814VZBV8G9H7lv-4" value="(1,n)" style="edgeLabel;html=1;align=center;verticalAlign=middle;resizable=0;points=[];" parent="_UK4-lh9YkA2kkaVZ_zC-41" vertex="1" connectable="0">
          <mxGeometry x="-0.4034" relative="1" as="geometry">
            <mxPoint x="-4" y="-5" as="offset" />
          </mxGeometry>
        </mxCell>
        <mxCell id="_UK4-lh9YkA2kkaVZ_zC-47" style="rounded=0;orthogonalLoop=1;jettySize=auto;html=1;exitX=0;exitY=0.5;exitDx=0;exitDy=0;entryX=1;entryY=0.5;entryDx=0;entryDy=0;endArrow=none;endFill=0;" parent="1" source="_UK4-lh9YkA2kkaVZ_zC-40" target="_UK4-lh9YkA2kkaVZ_zC-44" edge="1">
          <mxGeometry relative="1" as="geometry" />
        </mxCell>
        <mxCell id="_UK4-lh9YkA2kkaVZ_zC-48" style="rounded=0;orthogonalLoop=1;jettySize=auto;html=1;exitX=0.006;exitY=0.921;exitDx=0;exitDy=0;entryX=1;entryY=0.5;entryDx=0;entryDy=0;endArrow=none;endFill=0;exitPerimeter=0;" parent="1" source="_UK4-lh9YkA2kkaVZ_zC-40" target="_UK4-lh9YkA2kkaVZ_zC-45" edge="1">
          <mxGeometry relative="1" as="geometry" />
        </mxCell>
        <mxCell id="_UK4-lh9YkA2kkaVZ_zC-50" style="rounded=0;orthogonalLoop=1;jettySize=auto;html=1;exitX=0.5;exitY=1;exitDx=0;exitDy=0;entryX=0.5;entryY=0;entryDx=0;entryDy=0;endArrow=none;endFill=0;" parent="1" source="_UK4-lh9YkA2kkaVZ_zC-40" target="_UK4-lh9YkA2kkaVZ_zC-49" edge="1">
          <mxGeometry relative="1" as="geometry" />
        </mxCell>
        <mxCell id="_UK4-lh9YkA2kkaVZ_zC-40" value="Item list item" style="whiteSpace=wrap;html=1;align=center;dashed=1;" parent="1" vertex="1">
          <mxGeometry x="160" y="210" width="100" height="40" as="geometry" />
        </mxCell>
        <mxCell id="_UK4-lh9YkA2kkaVZ_zC-43" value="id" style="ellipse;whiteSpace=wrap;html=1;align=center;fontStyle=4;" parent="1" vertex="1">
          <mxGeometry x="20" y="160" width="100" height="40" as="geometry" />
        </mxCell>
        <mxCell id="_UK4-lh9YkA2kkaVZ_zC-44" value="loading_type" style="ellipse;whiteSpace=wrap;html=1;align=center;fontStyle=4;" parent="1" vertex="1">
          <mxGeometry x="20" y="210" width="100" height="40" as="geometry" />
        </mxCell>
        <mxCell id="_UK4-lh9YkA2kkaVZ_zC-45" value="item_name" style="ellipse;whiteSpace=wrap;html=1;align=center;fontStyle=4;" parent="1" vertex="1">
          <mxGeometry x="20" y="270" width="100" height="40" as="geometry" />
        </mxCell>
        <mxCell id="_UK4-lh9YkA2kkaVZ_zC-49" value="Attribute" style="ellipse;whiteSpace=wrap;html=1;align=center;" parent="1" vertex="1">
          <mxGeometry x="120" y="300" width="100" height="40" as="geometry" />
        </mxCell>
        <mxCell id="_UK4-lh9YkA2kkaVZ_zC-54" style="rounded=0;orthogonalLoop=1;jettySize=auto;html=1;exitX=0;exitY=0;exitDx=0;exitDy=0;entryX=0.5;entryY=1;entryDx=0;entryDy=0;endArrow=none;endFill=0;" parent="1" source="_UK4-lh9YkA2kkaVZ_zC-51" target="_UK4-lh9YkA2kkaVZ_zC-53" edge="1">
          <mxGeometry relative="1" as="geometry" />
        </mxCell>
        <mxCell id="_UK4-lh9YkA2kkaVZ_zC-59" style="rounded=0;orthogonalLoop=1;jettySize=auto;html=1;exitX=0.5;exitY=0;exitDx=0;exitDy=0;entryX=0.5;entryY=1;entryDx=0;entryDy=0;endArrow=none;endFill=0;" parent="1" source="_UK4-lh9YkA2kkaVZ_zC-51" target="_UK4-lh9YkA2kkaVZ_zC-57" edge="1">
          <mxGeometry relative="1" as="geometry" />
        </mxCell>
        <mxCell id="_UK4-lh9YkA2kkaVZ_zC-140" style="rounded=0;orthogonalLoop=1;jettySize=auto;html=1;exitX=1;exitY=1;exitDx=0;exitDy=0;entryX=0;entryY=0.5;entryDx=0;entryDy=0;endArrow=none;endFill=0;dashed=1;" parent="1" source="_UK4-lh9YkA2kkaVZ_zC-51" target="_UK4-lh9YkA2kkaVZ_zC-139" edge="1">
          <mxGeometry relative="1" as="geometry" />
        </mxCell>
        <mxCell id="_UK4-lh9YkA2kkaVZ_zC-51" value="Driver" style="whiteSpace=wrap;html=1;align=center;dashed=1;" parent="1" vertex="1">
          <mxGeometry x="645" y="315" width="100" height="40" as="geometry" />
        </mxCell>
        <mxCell id="_UK4-lh9YkA2kkaVZ_zC-53" value="id" style="ellipse;whiteSpace=wrap;html=1;align=center;fontStyle=4;" parent="1" vertex="1">
          <mxGeometry x="535" y="250" width="100" height="40" as="geometry" />
        </mxCell>
        <mxCell id="_UK4-lh9YkA2kkaVZ_zC-57" value="license_type" style="ellipse;whiteSpace=wrap;html=1;align=center;" parent="1" vertex="1">
          <mxGeometry x="670" y="240" width="100" height="40" as="geometry" />
        </mxCell>
        <mxCell id="_UK4-lh9YkA2kkaVZ_zC-63" style="rounded=0;orthogonalLoop=1;jettySize=auto;html=1;exitX=1;exitY=0.5;exitDx=0;exitDy=0;entryX=0;entryY=0.5;entryDx=0;entryDy=0;endArrow=none;endFill=0;" parent="1" source="_UK4-lh9YkA2kkaVZ_zC-61" target="_UK4-lh9YkA2kkaVZ_zC-62" edge="1">
          <mxGeometry relative="1" as="geometry" />
        </mxCell>
        <mxCell id="_UK4-lh9YkA2kkaVZ_zC-61" value="Transport id counter" style="whiteSpace=wrap;html=1;align=center;" parent="1" vertex="1">
          <mxGeometry x="760" y="160" width="100" height="40" as="geometry" />
        </mxCell>
        <mxCell id="_UK4-lh9YkA2kkaVZ_zC-62" value="counter" style="ellipse;whiteSpace=wrap;html=1;align=center;fontStyle=4;" parent="1" vertex="1">
          <mxGeometry x="875" y="190" width="100" height="40" as="geometry" />
        </mxCell>
        <mxCell id="_UK4-lh9YkA2kkaVZ_zC-72" style="rounded=0;orthogonalLoop=1;jettySize=auto;html=1;exitX=1;exitY=1;exitDx=0;exitDy=0;entryX=0;entryY=0.5;entryDx=0;entryDy=0;endArrow=none;endFill=0;" parent="1" source="_UK4-lh9YkA2kkaVZ_zC-64" target="_UK4-lh9YkA2kkaVZ_zC-69" edge="1">
          <mxGeometry relative="1" as="geometry" />
        </mxCell>
        <mxCell id="_UK4-lh9YkA2kkaVZ_zC-73" style="rounded=0;orthogonalLoop=1;jettySize=auto;html=1;exitX=1;exitY=0.5;exitDx=0;exitDy=0;entryX=0;entryY=0.5;entryDx=0;entryDy=0;endArrow=none;endFill=0;" parent="1" source="_UK4-lh9YkA2kkaVZ_zC-64" target="_UK4-lh9YkA2kkaVZ_zC-68" edge="1">
          <mxGeometry relative="1" as="geometry" />
        </mxCell>
        <mxCell id="_UK4-lh9YkA2kkaVZ_zC-74" style="rounded=0;orthogonalLoop=1;jettySize=auto;html=1;exitX=1;exitY=0;exitDx=0;exitDy=0;entryX=0;entryY=0.5;entryDx=0;entryDy=0;endArrow=none;endFill=0;" parent="1" source="_UK4-lh9YkA2kkaVZ_zC-64" target="_UK4-lh9YkA2kkaVZ_zC-66" edge="1">
          <mxGeometry relative="1" as="geometry" />
        </mxCell>
        <mxCell id="_UK4-lh9YkA2kkaVZ_zC-90" style="rounded=0;orthogonalLoop=1;jettySize=auto;html=1;exitX=0.5;exitY=1;exitDx=0;exitDy=0;entryX=0.5;entryY=0;entryDx=0;entryDy=0;endArrow=none;endFill=0;dashed=1;" parent="1" source="_UK4-lh9YkA2kkaVZ_zC-64" target="_UK4-lh9YkA2kkaVZ_zC-87" edge="1">
          <mxGeometry relative="1" as="geometry" />
        </mxCell>
        <mxCell id="yyWlpS814VZBV8G9H7lv-3" value="(1,n)" style="edgeLabel;html=1;align=center;verticalAlign=middle;resizable=0;points=[];" parent="_UK4-lh9YkA2kkaVZ_zC-90" vertex="1" connectable="0">
          <mxGeometry x="-0.1698" y="-1" relative="1" as="geometry">
            <mxPoint x="19" y="-18" as="offset" />
          </mxGeometry>
        </mxCell>
        <mxCell id="_UK4-lh9YkA2kkaVZ_zC-128" style="rounded=0;orthogonalLoop=1;jettySize=auto;html=1;exitX=0;exitY=0;exitDx=0;exitDy=0;entryX=1;entryY=0.5;entryDx=0;entryDy=0;endArrow=none;endFill=0;" parent="1" source="_UK4-lh9YkA2kkaVZ_zC-64" target="_UK4-lh9YkA2kkaVZ_zC-125" edge="1">
          <mxGeometry relative="1" as="geometry" />
        </mxCell>
        <mxCell id="_UK4-lh9YkA2kkaVZ_zC-64" value="Transport destination" style="whiteSpace=wrap;html=1;align=center;dashed=1;" parent="1" vertex="1">
          <mxGeometry x="460" y="95" width="100" height="40" as="geometry" />
        </mxCell>
        <mxCell id="_UK4-lh9YkA2kkaVZ_zC-65" value="transport_id" style="ellipse;whiteSpace=wrap;html=1;align=center;fontStyle=4;" parent="1" vertex="1">
          <mxGeometry x="470" y="30" width="100" height="40" as="geometry" />
        </mxCell>
        <mxCell id="_UK4-lh9YkA2kkaVZ_zC-66" value="destination_index" style="ellipse;whiteSpace=wrap;html=1;align=center;fontStyle=4;" parent="1" vertex="1">
          <mxGeometry x="585" y="45" width="100" height="40" as="geometry" />
        </mxCell>
        <mxCell id="_UK4-lh9YkA2kkaVZ_zC-68" value="destination _address" style="ellipse;whiteSpace=wrap;html=1;align=center;" parent="1" vertex="1">
          <mxGeometry x="585" y="105" width="100" height="40" as="geometry" />
        </mxCell>
        <mxCell id="_UK4-lh9YkA2kkaVZ_zC-69" value="item_list_id" style="ellipse;whiteSpace=wrap;html=1;align=center;" parent="1" vertex="1">
          <mxGeometry x="585" y="155" width="100" height="40" as="geometry" />
        </mxCell>
        <mxCell id="_UK4-lh9YkA2kkaVZ_zC-80" style="rounded=0;orthogonalLoop=1;jettySize=auto;html=1;exitX=1;exitY=0;exitDx=0;exitDy=0;entryX=0;entryY=0.5;entryDx=0;entryDy=0;endArrow=none;endFill=0;" parent="1" source="_UK4-lh9YkA2kkaVZ_zC-76" target="_UK4-lh9YkA2kkaVZ_zC-77" edge="1">
          <mxGeometry relative="1" as="geometry" />
        </mxCell>
        <mxCell id="_UK4-lh9YkA2kkaVZ_zC-81" style="rounded=0;orthogonalLoop=1;jettySize=auto;html=1;exitX=1;exitY=0.5;exitDx=0;exitDy=0;entryX=0;entryY=0.5;entryDx=0;entryDy=0;endArrow=none;endFill=0;" parent="1" source="_UK4-lh9YkA2kkaVZ_zC-76" target="_UK4-lh9YkA2kkaVZ_zC-78" edge="1">
          <mxGeometry relative="1" as="geometry" />
        </mxCell>
        <mxCell id="_UK4-lh9YkA2kkaVZ_zC-82" style="rounded=0;orthogonalLoop=1;jettySize=auto;html=1;exitX=1;exitY=1;exitDx=0;exitDy=0;entryX=0;entryY=0.5;entryDx=0;entryDy=0;endArrow=none;endFill=0;" parent="1" source="_UK4-lh9YkA2kkaVZ_zC-76" target="_UK4-lh9YkA2kkaVZ_zC-79" edge="1">
          <mxGeometry relative="1" as="geometry" />
        </mxCell>
        <mxCell id="_UK4-lh9YkA2kkaVZ_zC-76" value="sites distances" style="whiteSpace=wrap;html=1;align=center;" parent="1" vertex="1">
          <mxGeometry x="760" y="70" width="100" height="40" as="geometry" />
        </mxCell>
        <mxCell id="_UK4-lh9YkA2kkaVZ_zC-77" value="source&lt;br&gt;address" style="ellipse;whiteSpace=wrap;html=1;align=center;fontStyle=4;" parent="1" vertex="1">
          <mxGeometry x="900" y="20" width="100" height="40" as="geometry" />
        </mxCell>
        <mxCell id="_UK4-lh9YkA2kkaVZ_zC-78" value="destination&lt;br&gt;address" style="ellipse;whiteSpace=wrap;html=1;align=center;fontStyle=4;" parent="1" vertex="1">
          <mxGeometry x="900" y="70" width="100" height="40" as="geometry" />
        </mxCell>
        <mxCell id="_UK4-lh9YkA2kkaVZ_zC-79" value="distance" style="ellipse;whiteSpace=wrap;html=1;align=center;" parent="1" vertex="1">
          <mxGeometry x="900" y="120" width="100" height="40" as="geometry" />
        </mxCell>
        <mxCell id="_UK4-lh9YkA2kkaVZ_zC-85" style="rounded=0;orthogonalLoop=1;jettySize=auto;html=1;exitX=0;exitY=0;exitDx=0;exitDy=0;entryX=1;entryY=0.5;entryDx=0;entryDy=0;endArrow=none;endFill=0;" parent="1" source="_UK4-lh9YkA2kkaVZ_zC-83" target="_UK4-lh9YkA2kkaVZ_zC-84" edge="1">
          <mxGeometry relative="1" as="geometry" />
        </mxCell>
        <mxCell id="_UK4-lh9YkA2kkaVZ_zC-96" style="rounded=0;orthogonalLoop=1;jettySize=auto;html=1;exitX=0.5;exitY=1;exitDx=0;exitDy=0;entryX=0.5;entryY=0;entryDx=0;entryDy=0;endArrow=none;endFill=0;" parent="1" source="_UK4-lh9YkA2kkaVZ_zC-83" target="_UK4-lh9YkA2kkaVZ_zC-95" edge="1">
          <mxGeometry relative="1" as="geometry" />
        </mxCell>
        <mxCell id="_UK4-lh9YkA2kkaVZ_zC-98" style="rounded=0;orthogonalLoop=1;jettySize=auto;html=1;exitX=0.25;exitY=1;exitDx=0;exitDy=0;entryX=1;entryY=0;entryDx=0;entryDy=0;endArrow=none;endFill=0;" parent="1" source="_UK4-lh9YkA2kkaVZ_zC-83" target="_UK4-lh9YkA2kkaVZ_zC-94" edge="1">
          <mxGeometry relative="1" as="geometry" />
        </mxCell>
        <mxCell id="_UK4-lh9YkA2kkaVZ_zC-99" style="rounded=0;orthogonalLoop=1;jettySize=auto;html=1;exitX=0;exitY=1;exitDx=0;exitDy=0;entryX=1;entryY=0.5;entryDx=0;entryDy=0;endArrow=none;endFill=0;" parent="1" source="_UK4-lh9YkA2kkaVZ_zC-83" target="_UK4-lh9YkA2kkaVZ_zC-93" edge="1">
          <mxGeometry relative="1" as="geometry" />
        </mxCell>
        <mxCell id="_UK4-lh9YkA2kkaVZ_zC-100" style="rounded=0;orthogonalLoop=1;jettySize=auto;html=1;exitX=0;exitY=0.75;exitDx=0;exitDy=0;entryX=1;entryY=0.5;entryDx=0;entryDy=0;endArrow=none;endFill=0;" parent="1" source="_UK4-lh9YkA2kkaVZ_zC-83" target="_UK4-lh9YkA2kkaVZ_zC-92" edge="1">
          <mxGeometry relative="1" as="geometry">
            <mxPoint x="120" y="490" as="targetPoint" />
            <Array as="points" />
          </mxGeometry>
        </mxCell>
        <mxCell id="_UK4-lh9YkA2kkaVZ_zC-101" style="rounded=0;orthogonalLoop=1;jettySize=auto;html=1;exitX=0;exitY=0.5;exitDx=0;exitDy=0;entryX=1;entryY=0.5;entryDx=0;entryDy=0;endArrow=none;endFill=0;" parent="1" source="_UK4-lh9YkA2kkaVZ_zC-83" target="_UK4-lh9YkA2kkaVZ_zC-86" edge="1">
          <mxGeometry relative="1" as="geometry" />
        </mxCell>
        <mxCell id="_UK4-lh9YkA2kkaVZ_zC-104" style="rounded=0;orthogonalLoop=1;jettySize=auto;html=1;exitX=0.75;exitY=1;exitDx=0;exitDy=0;entryX=0.5;entryY=0;entryDx=0;entryDy=0;endArrow=none;endFill=0;" parent="1" source="_UK4-lh9YkA2kkaVZ_zC-83" target="_UK4-lh9YkA2kkaVZ_zC-103" edge="1">
          <mxGeometry relative="1" as="geometry" />
        </mxCell>
        <mxCell id="yyWlpS814VZBV8G9H7lv-8" value="(0,n)" style="edgeLabel;html=1;align=center;verticalAlign=middle;resizable=0;points=[];" parent="_UK4-lh9YkA2kkaVZ_zC-104" vertex="1" connectable="0">
          <mxGeometry x="0.4121" y="-1" relative="1" as="geometry">
            <mxPoint x="-26" y="-45" as="offset" />
          </mxGeometry>
        </mxCell>
        <mxCell id="_UK4-lh9YkA2kkaVZ_zC-123" style="rounded=0;orthogonalLoop=1;jettySize=auto;html=1;exitX=1;exitY=1;exitDx=0;exitDy=0;entryX=0;entryY=0.5;entryDx=0;entryDy=0;endArrow=none;endFill=0;" parent="1" source="_UK4-lh9YkA2kkaVZ_zC-83" target="_UK4-lh9YkA2kkaVZ_zC-122" edge="1">
          <mxGeometry relative="1" as="geometry" />
        </mxCell>
        <mxCell id="yyWlpS814VZBV8G9H7lv-7" value="(0,n)" style="edgeLabel;html=1;align=center;verticalAlign=middle;resizable=0;points=[];" parent="_UK4-lh9YkA2kkaVZ_zC-123" vertex="1" connectable="0">
          <mxGeometry x="-0.1827" relative="1" as="geometry">
            <mxPoint as="offset" />
          </mxGeometry>
        </mxCell>
        <mxCell id="_UK4-lh9YkA2kkaVZ_zC-83" value="Transport" style="whiteSpace=wrap;html=1;align=center;" parent="1" vertex="1">
          <mxGeometry x="210" y="480" width="100" height="40" as="geometry" />
        </mxCell>
        <mxCell id="_UK4-lh9YkA2kkaVZ_zC-84" value="id" style="ellipse;whiteSpace=wrap;html=1;align=center;fontStyle=4;" parent="1" vertex="1">
          <mxGeometry x="50" y="380" width="100" height="40" as="geometry" />
        </mxCell>
        <mxCell id="_UK4-lh9YkA2kkaVZ_zC-86" value="source" style="ellipse;whiteSpace=wrap;html=1;align=center;" parent="1" vertex="1">
          <mxGeometry x="30" y="425" width="100" height="40" as="geometry" />
        </mxCell>
        <mxCell id="_UK4-lh9YkA2kkaVZ_zC-88" style="rounded=0;orthogonalLoop=1;jettySize=auto;html=1;exitX=0.5;exitY=0;exitDx=0;exitDy=0;entryX=0.5;entryY=1;entryDx=0;entryDy=0;endArrow=none;endFill=0;" parent="1" source="_UK4-lh9YkA2kkaVZ_zC-64" target="_UK4-lh9YkA2kkaVZ_zC-65" edge="1">
          <mxGeometry relative="1" as="geometry" />
        </mxCell>
        <mxCell id="_UK4-lh9YkA2kkaVZ_zC-89" style="rounded=0;orthogonalLoop=1;jettySize=auto;html=1;exitX=0.5;exitY=1;exitDx=0;exitDy=0;entryX=0.5;entryY=0;entryDx=0;entryDy=0;dashed=1;" parent="1" source="_UK4-lh9YkA2kkaVZ_zC-87" target="_UK4-lh9YkA2kkaVZ_zC-83" edge="1">
          <mxGeometry relative="1" as="geometry" />
        </mxCell>
        <mxCell id="yyWlpS814VZBV8G9H7lv-2" value="(1,1)" style="edgeLabel;html=1;align=center;verticalAlign=middle;resizable=0;points=[];" parent="_UK4-lh9YkA2kkaVZ_zC-89" vertex="1" connectable="0">
          <mxGeometry x="0.5317" relative="1" as="geometry">
            <mxPoint y="1" as="offset" />
          </mxGeometry>
        </mxCell>
        <mxCell id="_UK4-lh9YkA2kkaVZ_zC-87" value="delivery information" style="shape=rhombus;perimeter=rhombusPerimeter;whiteSpace=wrap;html=1;align=center;dashed=1;" parent="1" vertex="1">
          <mxGeometry x="340" y="240" width="130" height="60" as="geometry" />
        </mxCell>
        <mxCell id="_UK4-lh9YkA2kkaVZ_zC-92" value="driver_id" style="ellipse;whiteSpace=wrap;html=1;align=center;" parent="1" vertex="1">
          <mxGeometry x="10" y="470" width="100" height="40" as="geometry" />
        </mxCell>
        <mxCell id="_UK4-lh9YkA2kkaVZ_zC-93" value="truck_id" style="ellipse;whiteSpace=wrap;html=1;align=center;" parent="1" vertex="1">
          <mxGeometry x="30" y="520" width="100" height="40" as="geometry" />
        </mxCell>
        <mxCell id="_UK4-lh9YkA2kkaVZ_zC-94" value="departure_time" style="ellipse;whiteSpace=wrap;html=1;align=center;" parent="1" vertex="1">
          <mxGeometry x="70" y="560" width="100" height="40" as="geometry" />
        </mxCell>
        <mxCell id="_UK4-lh9YkA2kkaVZ_zC-95" value="weight" style="ellipse;whiteSpace=wrap;html=1;align=center;" parent="1" vertex="1">
          <mxGeometry x="150" y="590" width="100" height="40" as="geometry" />
        </mxCell>
        <mxCell id="_UK4-lh9YkA2kkaVZ_zC-105" style="rounded=0;orthogonalLoop=1;jettySize=auto;html=1;exitX=0.5;exitY=1;exitDx=0;exitDy=0;entryX=1;entryY=0;entryDx=0;entryDy=0;endArrow=none;endFill=0;" parent="1" source="_UK4-lh9YkA2kkaVZ_zC-103" target="_UK4-lh9YkA2kkaVZ_zC-3" edge="1">
          <mxGeometry relative="1" as="geometry" />
        </mxCell>
        <mxCell id="yyWlpS814VZBV8G9H7lv-9" value="(1,1)" style="edgeLabel;html=1;align=center;verticalAlign=middle;resizable=0;points=[];" parent="_UK4-lh9YkA2kkaVZ_zC-105" vertex="1" connectable="0">
          <mxGeometry x="0.5714" y="2" relative="1" as="geometry">
            <mxPoint x="2" y="-10" as="offset" />
          </mxGeometry>
        </mxCell>
        <mxCell id="_UK4-lh9YkA2kkaVZ_zC-103" value="holds id" style="shape=rhombus;perimeter=rhombusPerimeter;whiteSpace=wrap;html=1;align=center;" parent="1" vertex="1">
          <mxGeometry x="270" y="610" width="120" height="60" as="geometry" />
        </mxCell>
        <mxCell id="_UK4-lh9YkA2kkaVZ_zC-107" style="rounded=0;orthogonalLoop=1;jettySize=auto;html=1;exitX=1;exitY=0;exitDx=0;exitDy=0;entryX=0;entryY=1;entryDx=0;entryDy=0;endArrow=none;endFill=0;" parent="1" source="_UK4-lh9YkA2kkaVZ_zC-106" target="_UK4-lh9YkA2kkaVZ_zC-51" edge="1">
          <mxGeometry relative="1" as="geometry" />
        </mxCell>
        <mxCell id="yyWlpS814VZBV8G9H7lv-11" value="(1,1)" style="edgeLabel;html=1;align=center;verticalAlign=middle;resizable=0;points=[];" parent="_UK4-lh9YkA2kkaVZ_zC-107" vertex="1" connectable="0">
          <mxGeometry x="0.2061" y="2" relative="1" as="geometry">
            <mxPoint x="33" y="-12" as="offset" />
          </mxGeometry>
        </mxCell>
        <mxCell id="_UK4-lh9YkA2kkaVZ_zC-108" style="rounded=0;orthogonalLoop=1;jettySize=auto;html=1;exitX=0;exitY=0.5;exitDx=0;exitDy=0;entryX=1;entryY=0.5;entryDx=0;entryDy=0;endArrow=none;endFill=0;" parent="1" source="_UK4-lh9YkA2kkaVZ_zC-106" target="_UK4-lh9YkA2kkaVZ_zC-83" edge="1">
          <mxGeometry relative="1" as="geometry" />
        </mxCell>
        <mxCell id="yyWlpS814VZBV8G9H7lv-10" value="(0,n)" style="edgeLabel;html=1;align=center;verticalAlign=middle;resizable=0;points=[];" parent="_UK4-lh9YkA2kkaVZ_zC-108" vertex="1" connectable="0">
          <mxGeometry x="-0.1224" y="2" relative="1" as="geometry">
            <mxPoint x="-27" y="17" as="offset" />
          </mxGeometry>
        </mxCell>
        <mxCell id="_UK4-lh9YkA2kkaVZ_zC-106" value="holds id" style="shape=rhombus;perimeter=rhombusPerimeter;whiteSpace=wrap;html=1;align=center;" parent="1" vertex="1">
          <mxGeometry x="410" y="400" width="120" height="60" as="geometry" />
        </mxCell>
        <mxCell id="_UK4-lh9YkA2kkaVZ_zC-124" style="rounded=0;orthogonalLoop=1;jettySize=auto;html=1;exitX=1;exitY=0.5;exitDx=0;exitDy=0;entryX=0;entryY=0.5;entryDx=0;entryDy=0;endArrow=none;endFill=0;" parent="1" source="_UK4-lh9YkA2kkaVZ_zC-122" target="_UK4-lh9YkA2kkaVZ_zC-20" edge="1">
          <mxGeometry relative="1" as="geometry" />
        </mxCell>
        <mxCell id="yyWlpS814VZBV8G9H7lv-6" value="(1,1)" style="edgeLabel;html=1;align=center;verticalAlign=middle;resizable=0;points=[];" parent="_UK4-lh9YkA2kkaVZ_zC-124" vertex="1" connectable="0">
          <mxGeometry x="0.4426" y="1" relative="1" as="geometry">
            <mxPoint x="-9" y="-1" as="offset" />
          </mxGeometry>
        </mxCell>
        <mxCell id="_UK4-lh9YkA2kkaVZ_zC-122" value="holds id" style="shape=rhombus;perimeter=rhombusPerimeter;whiteSpace=wrap;html=1;align=center;" parent="1" vertex="1">
          <mxGeometry x="410" y="499.15999999999997" width="120" height="60" as="geometry" />
        </mxCell>
        <mxCell id="_UK4-lh9YkA2kkaVZ_zC-127" style="rounded=0;orthogonalLoop=1;jettySize=auto;html=1;exitX=0;exitY=0.5;exitDx=0;exitDy=0;endArrow=none;endFill=0;entryX=1;entryY=0.5;entryDx=0;entryDy=0;" parent="1" source="_UK4-lh9YkA2kkaVZ_zC-125" target="_UK4-lh9YkA2kkaVZ_zC-32" edge="1">
          <mxGeometry relative="1" as="geometry" />
        </mxCell>
        <mxCell id="_UK4-lh9YkA2kkaVZ_zC-125" value="holds id" style="shape=rhombus;perimeter=rhombusPerimeter;whiteSpace=wrap;html=1;align=center;" parent="1" vertex="1">
          <mxGeometry x="290" y="35" width="120" height="60" as="geometry" />
        </mxCell>
        <mxCell id="_UK4-lh9YkA2kkaVZ_zC-138" value="Employee" style="whiteSpace=wrap;html=1;align=center;" parent="1" vertex="1">
          <mxGeometry x="1040" y="402" width="100" height="40" as="geometry" />
        </mxCell>
        <mxCell id="_UK4-lh9YkA2kkaVZ_zC-141" value="(1,1)" style="rounded=0;orthogonalLoop=1;jettySize=auto;html=1;exitX=1;exitY=0.5;exitDx=0;exitDy=0;entryX=0;entryY=0.5;entryDx=0;entryDy=0;endArrow=classic;endFill=1;dashed=1;" parent="1" source="_UK4-lh9YkA2kkaVZ_zC-139" target="_UK4-lh9YkA2kkaVZ_zC-138" edge="1">
          <mxGeometry relative="1" as="geometry">
            <Array as="points" />
          </mxGeometry>
        </mxCell>
        <mxCell id="_UK4-lh9YkA2kkaVZ_zC-139" value="type of" style="shape=rhombus;perimeter=rhombusPerimeter;whiteSpace=wrap;html=1;align=center;dashed=1;" parent="1" vertex="1">
          <mxGeometry x="780" y="360" width="120" height="60" as="geometry" />
        </mxCell>
        <mxCell id="_UK4-lh9YkA2kkaVZ_zC-147" style="rounded=0;orthogonalLoop=1;jettySize=auto;html=1;exitX=0.25;exitY=0;exitDx=0;exitDy=0;entryX=0.5;entryY=1;entryDx=0;entryDy=0;endArrow=none;endFill=0;" parent="1" source="_UK4-lh9YkA2kkaVZ_zC-144" target="_UK4-lh9YkA2kkaVZ_zC-146" edge="1">
          <mxGeometry relative="1" as="geometry" />
        </mxCell>
        <mxCell id="_UK4-lh9YkA2kkaVZ_zC-154" style="rounded=0;orthogonalLoop=1;jettySize=auto;html=1;exitX=0;exitY=0.5;exitDx=0;exitDy=0;entryX=1;entryY=0.5;entryDx=0;entryDy=0;dashed=1;endArrow=none;endFill=0;" parent="1" source="_UK4-lh9YkA2kkaVZ_zC-144" target="_UK4-lh9YkA2kkaVZ_zC-153" edge="1">
          <mxGeometry relative="1" as="geometry" />
        </mxCell>
        <mxCell id="-8iSQV2ZSuI7h5ouUUMk-2" value="(0,1)" style="edgeLabel;html=1;align=center;verticalAlign=middle;resizable=0;points=[];" vertex="1" connectable="0" parent="_UK4-lh9YkA2kkaVZ_zC-154">
          <mxGeometry x="-0.1951" y="-1" relative="1" as="geometry">
            <mxPoint x="-2" y="3" as="offset" />
          </mxGeometry>
        </mxCell>
        <mxCell id="VgIngk03O4RTy5kS0fX_-120" value="(0,n)" style="rounded=0;orthogonalLoop=1;jettySize=auto;html=1;entryX=0;entryY=1;entryDx=0;entryDy=0;endArrow=none;endFill=0;" parent="1" source="_UK4-lh9YkA2kkaVZ_zC-144" target="VgIngk03O4RTy5kS0fX_-117" edge="1">
          <mxGeometry relative="1" as="geometry" />
        </mxCell>
        <mxCell id="_UK4-lh9YkA2kkaVZ_zC-144" value="Branch" style="whiteSpace=wrap;html=1;align=center;dashed=1;" parent="1" vertex="1">
          <mxGeometry x="485" y="810" width="100" height="40" as="geometry" />
        </mxCell>
        <mxCell id="_UK4-lh9YkA2kkaVZ_zC-146" value="morning_shift_start" style="ellipse;whiteSpace=wrap;html=1;align=center;fontStyle=0;" parent="1" vertex="1">
          <mxGeometry x="430" y="740" width="130" height="40" as="geometry" />
        </mxCell>
        <mxCell id="_UK4-lh9YkA2kkaVZ_zC-148" style="rounded=0;orthogonalLoop=1;jettySize=auto;html=1;exitX=1;exitY=0.5;exitDx=0;exitDy=0;entryX=0;entryY=0.5;entryDx=0;entryDy=0;endArrow=none;endFill=0;" parent="1" source="_UK4-lh9YkA2kkaVZ_zC-149" target="_UK4-lh9YkA2kkaVZ_zC-150" edge="1">
          <mxGeometry relative="1" as="geometry" />
        </mxCell>
        <mxCell id="_UK4-lh9YkA2kkaVZ_zC-149" value="item list &lt;br&gt;id counter" style="whiteSpace=wrap;html=1;align=center;" parent="1" vertex="1">
          <mxGeometry x="900" y="256" width="100" height="40" as="geometry" />
        </mxCell>
        <mxCell id="_UK4-lh9YkA2kkaVZ_zC-150" value="counter" style="ellipse;whiteSpace=wrap;html=1;align=center;fontStyle=4;" parent="1" vertex="1">
          <mxGeometry x="1020" y="256" width="100" height="40" as="geometry" />
        </mxCell>
        <mxCell id="_UK4-lh9YkA2kkaVZ_zC-156" value="(1,1)" style="rounded=0;orthogonalLoop=1;jettySize=auto;html=1;exitX=0;exitY=0.5;exitDx=0;exitDy=0;entryX=1;entryY=1;entryDx=0;entryDy=0;dashed=1;" parent="1" source="_UK4-lh9YkA2kkaVZ_zC-153" target="_UK4-lh9YkA2kkaVZ_zC-3" edge="1">
          <mxGeometry relative="1" as="geometry" />
        </mxCell>
        <mxCell id="_UK4-lh9YkA2kkaVZ_zC-153" value="type of&lt;br&gt;" style="shape=rhombus;perimeter=rhombusPerimeter;whiteSpace=wrap;html=1;align=center;dashed=1;" parent="1" vertex="1">
          <mxGeometry x="330" y="770" width="120" height="60" as="geometry" />
        </mxCell>
        <mxCell id="VgIngk03O4RTy5kS0fX_-1" value="id" style="ellipse;whiteSpace=wrap;html=1;align=center;fontStyle=4;" parent="1" vertex="1">
          <mxGeometry x="999" y="320" width="80" height="35" as="geometry" />
        </mxCell>
        <mxCell id="VgIngk03O4RTy5kS0fX_-2" value="name" style="ellipse;whiteSpace=wrap;html=1;align=center;fontStyle=0;" parent="1" vertex="1">
          <mxGeometry x="1080" y="327.5" width="90" height="40" as="geometry" />
        </mxCell>
        <mxCell id="VgIngk03O4RTy5kS0fX_-3" value="bank_details" style="ellipse;whiteSpace=wrap;html=1;align=center;fontStyle=0;" parent="1" vertex="1">
          <mxGeometry x="1160" y="355" width="100" height="40" as="geometry" />
        </mxCell>
        <mxCell id="VgIngk03O4RTy5kS0fX_-4" value="hourly_salary_rate" style="ellipse;whiteSpace=wrap;html=1;align=center;fontStyle=0;" parent="1" vertex="1">
          <mxGeometry x="1180" y="400" width="120" height="40" as="geometry" />
        </mxCell>
        <mxCell id="VgIngk03O4RTy5kS0fX_-5" value="monthly_hours" style="ellipse;whiteSpace=wrap;html=1;align=center;fontStyle=0;" parent="1" vertex="1">
          <mxGeometry x="1178" y="441.99999999999994" width="100" height="40" as="geometry" />
        </mxCell>
        <mxCell id="VgIngk03O4RTy5kS0fX_-6" value="salary_bonus" style="ellipse;whiteSpace=wrap;html=1;align=center;fontStyle=0;" parent="1" vertex="1">
          <mxGeometry x="1120" y="539.16" width="90" height="40" as="geometry" />
        </mxCell>
        <mxCell id="VgIngk03O4RTy5kS0fX_-7" value="employment&lt;br&gt;_conditions" style="ellipse;whiteSpace=wrap;html=1;align=center;fontStyle=0;" parent="1" vertex="1">
          <mxGeometry x="900" y="425" width="110" height="40" as="geometry" />
        </mxCell>
        <mxCell id="VgIngk03O4RTy5kS0fX_-8" value="employment_date" style="ellipse;whiteSpace=wrap;html=1;align=center;fontStyle=0;" parent="1" vertex="1">
          <mxGeometry x="1008" y="510" width="120" height="40" as="geometry" />
        </mxCell>
        <mxCell id="VgIngk03O4RTy5kS0fX_-9" value="details" style="ellipse;whiteSpace=wrap;html=1;align=center;fontStyle=0;" parent="1" vertex="1">
          <mxGeometry x="928" y="350" width="90" height="30" as="geometry" />
        </mxCell>
        <mxCell id="VgIngk03O4RTy5kS0fX_-11" style="rounded=0;orthogonalLoop=1;jettySize=auto;html=1;entryX=0.588;entryY=1.086;entryDx=0;entryDy=0;endArrow=none;endFill=0;entryPerimeter=0;" parent="1" target="VgIngk03O4RTy5kS0fX_-1" edge="1">
          <mxGeometry relative="1" as="geometry">
            <mxPoint x="1050" y="400" as="sourcePoint" />
            <mxPoint x="910" y="150" as="targetPoint" />
          </mxGeometry>
        </mxCell>
        <mxCell id="VgIngk03O4RTy5kS0fX_-12" style="rounded=0;orthogonalLoop=1;jettySize=auto;html=1;endArrow=none;endFill=0;exitX=0.5;exitY=0;exitDx=0;exitDy=0;" parent="1" source="_UK4-lh9YkA2kkaVZ_zC-138" target="VgIngk03O4RTy5kS0fX_-2" edge="1">
          <mxGeometry relative="1" as="geometry">
            <mxPoint x="1060" y="410" as="sourcePoint" />
            <mxPoint x="1047" y="378" as="targetPoint" />
          </mxGeometry>
        </mxCell>
        <mxCell id="VgIngk03O4RTy5kS0fX_-13" style="rounded=0;orthogonalLoop=1;jettySize=auto;html=1;entryX=0.02;entryY=0.675;entryDx=0;entryDy=0;endArrow=none;endFill=0;entryPerimeter=0;exitX=0.91;exitY=0;exitDx=0;exitDy=0;exitPerimeter=0;" parent="1" source="_UK4-lh9YkA2kkaVZ_zC-138" target="VgIngk03O4RTy5kS0fX_-3" edge="1">
          <mxGeometry relative="1" as="geometry">
            <mxPoint x="1140" y="400" as="sourcePoint" />
            <mxPoint x="1057" y="388" as="targetPoint" />
          </mxGeometry>
        </mxCell>
        <mxCell id="VgIngk03O4RTy5kS0fX_-14" style="rounded=0;orthogonalLoop=1;jettySize=auto;html=1;entryX=0;entryY=0.35;entryDx=0;entryDy=0;endArrow=none;endFill=0;entryPerimeter=0;exitX=1;exitY=0.3;exitDx=0;exitDy=0;exitPerimeter=0;" parent="1" source="_UK4-lh9YkA2kkaVZ_zC-138" target="VgIngk03O4RTy5kS0fX_-4" edge="1">
          <mxGeometry relative="1" as="geometry">
            <mxPoint x="1141" y="412" as="sourcePoint" />
            <mxPoint x="1172" y="392" as="targetPoint" />
          </mxGeometry>
        </mxCell>
        <mxCell id="VgIngk03O4RTy5kS0fX_-15" style="rounded=0;orthogonalLoop=1;jettySize=auto;html=1;entryX=0.02;entryY=0.35;entryDx=0;entryDy=0;endArrow=none;endFill=0;entryPerimeter=0;exitX=1;exitY=0.75;exitDx=0;exitDy=0;" parent="1" source="_UK4-lh9YkA2kkaVZ_zC-138" target="VgIngk03O4RTy5kS0fX_-5" edge="1">
          <mxGeometry relative="1" as="geometry">
            <mxPoint x="1151" y="422" as="sourcePoint" />
            <mxPoint x="1182" y="402" as="targetPoint" />
          </mxGeometry>
        </mxCell>
        <mxCell id="VgIngk03O4RTy5kS0fX_-17" style="rounded=0;orthogonalLoop=1;jettySize=auto;html=1;entryX=0.344;entryY=0.075;entryDx=0;entryDy=0;endArrow=none;endFill=0;entryPerimeter=0;exitX=0.62;exitY=1.05;exitDx=0;exitDy=0;exitPerimeter=0;" parent="1" source="_UK4-lh9YkA2kkaVZ_zC-138" target="VgIngk03O4RTy5kS0fX_-6" edge="1">
          <mxGeometry relative="1" as="geometry">
            <mxPoint x="1150" y="442" as="sourcePoint" />
            <mxPoint x="1190" y="466" as="targetPoint" />
          </mxGeometry>
        </mxCell>
        <mxCell id="VgIngk03O4RTy5kS0fX_-18" style="rounded=0;orthogonalLoop=1;jettySize=auto;html=1;entryX=0.5;entryY=0;entryDx=0;entryDy=0;endArrow=none;endFill=0;exitX=0.5;exitY=1;exitDx=0;exitDy=0;" parent="1" source="_UK4-lh9YkA2kkaVZ_zC-138" target="VgIngk03O4RTy5kS0fX_-8" edge="1">
          <mxGeometry relative="1" as="geometry">
            <mxPoint x="1160" y="452" as="sourcePoint" />
            <mxPoint x="1200" y="476" as="targetPoint" />
          </mxGeometry>
        </mxCell>
        <mxCell id="VgIngk03O4RTy5kS0fX_-19" style="rounded=0;orthogonalLoop=1;jettySize=auto;html=1;entryX=0.945;entryY=0.296;entryDx=0;entryDy=0;endArrow=none;endFill=0;entryPerimeter=0;exitX=0;exitY=0.75;exitDx=0;exitDy=0;" parent="1" source="_UK4-lh9YkA2kkaVZ_zC-138" target="VgIngk03O4RTy5kS0fX_-7" edge="1">
          <mxGeometry relative="1" as="geometry">
            <mxPoint x="1170" y="462" as="sourcePoint" />
            <mxPoint x="1210" y="486" as="targetPoint" />
          </mxGeometry>
        </mxCell>
        <mxCell id="VgIngk03O4RTy5kS0fX_-20" style="rounded=0;orthogonalLoop=1;jettySize=auto;html=1;entryX=1;entryY=0.5;entryDx=0;entryDy=0;endArrow=none;endFill=0;exitX=0;exitY=0;exitDx=0;exitDy=0;" parent="1" source="_UK4-lh9YkA2kkaVZ_zC-138" target="VgIngk03O4RTy5kS0fX_-9" edge="1">
          <mxGeometry relative="1" as="geometry">
            <mxPoint x="1180" y="472" as="sourcePoint" />
            <mxPoint x="1220" y="496" as="targetPoint" />
          </mxGeometry>
        </mxCell>
        <mxCell id="VgIngk03O4RTy5kS0fX_-23" value="(1,1)" style="rounded=0;orthogonalLoop=1;jettySize=auto;html=1;exitX=1;exitY=0;exitDx=0;exitDy=0;entryX=0.37;entryY=1.025;entryDx=0;entryDy=0;endArrow=classic;endFill=1;entryPerimeter=0;dashed=1;" parent="1" source="VgIngk03O4RTy5kS0fX_-25" target="_UK4-lh9YkA2kkaVZ_zC-138" edge="1">
          <mxGeometry relative="1" as="geometry">
            <mxPoint x="955" y="555" as="sourcePoint" />
            <mxPoint x="1080" y="472" as="targetPoint" />
          </mxGeometry>
        </mxCell>
        <mxCell id="VgIngk03O4RTy5kS0fX_-24" value="EmployeeRole" style="whiteSpace=wrap;html=1;align=center;dashed=1;" parent="1" vertex="1">
          <mxGeometry x="969" y="650" width="100" height="40" as="geometry" />
        </mxCell>
        <mxCell id="VgIngk03O4RTy5kS0fX_-25" value="belongs to" style="shape=rhombus;perimeter=rhombusPerimeter;whiteSpace=wrap;html=1;align=center;dashed=1;" parent="1" vertex="1">
          <mxGeometry x="810" y="590" width="120" height="60" as="geometry" />
        </mxCell>
        <mxCell id="VgIngk03O4RTy5kS0fX_-26" value="(1,n)" style="rounded=0;orthogonalLoop=1;jettySize=auto;html=1;entryX=0;entryY=0.25;entryDx=0;entryDy=0;endArrow=none;endFill=0;dashed=1;exitX=1;exitY=1;exitDx=0;exitDy=0;" parent="1" source="VgIngk03O4RTy5kS0fX_-25" target="VgIngk03O4RTy5kS0fX_-24" edge="1">
          <mxGeometry relative="1" as="geometry">
            <mxPoint x="930" y="584" as="sourcePoint" />
            <mxPoint x="1087" y="453" as="targetPoint" />
          </mxGeometry>
        </mxCell>
        <mxCell id="VgIngk03O4RTy5kS0fX_-28" style="rounded=0;orthogonalLoop=1;jettySize=auto;html=1;entryX=0.5;entryY=1;entryDx=0;entryDy=0;endArrow=none;endFill=0;exitX=0.5;exitY=0;exitDx=0;exitDy=0;" parent="1" source="VgIngk03O4RTy5kS0fX_-24" target="VgIngk03O4RTy5kS0fX_-83" edge="1">
          <mxGeometry relative="1" as="geometry">
            <mxPoint x="1100" y="660" as="sourcePoint" />
            <mxPoint x="960" y="660" as="targetPoint" />
          </mxGeometry>
        </mxCell>
        <mxCell id="VgIngk03O4RTy5kS0fX_-42" value="(0,n)" style="rounded=0;orthogonalLoop=1;jettySize=auto;html=1;entryX=1;entryY=0.5;entryDx=0;entryDy=0;endArrow=none;endFill=0;dashed=1;" parent="1" source="VgIngk03O4RTy5kS0fX_-32" target="VgIngk03O4RTy5kS0fX_-40" edge="1">
          <mxGeometry relative="1" as="geometry">
            <mxPoint x="914" y="830" as="targetPoint" />
          </mxGeometry>
        </mxCell>
        <mxCell id="VgIngk03O4RTy5kS0fX_-47" style="rounded=0;orthogonalLoop=1;jettySize=auto;html=1;exitX=0;exitY=0;exitDx=0;exitDy=0;entryX=0.61;entryY=1.025;entryDx=0;entryDy=0;entryPerimeter=0;endArrow=none;endFill=0;" parent="1" source="VgIngk03O4RTy5kS0fX_-32" target="VgIngk03O4RTy5kS0fX_-68" edge="1">
          <mxGeometry relative="1" as="geometry">
            <mxPoint x="938" y="788" as="targetPoint" />
          </mxGeometry>
        </mxCell>
        <mxCell id="VgIngk03O4RTy5kS0fX_-48" style="rounded=0;orthogonalLoop=1;jettySize=auto;html=1;endArrow=none;endFill=0;" parent="1" source="VgIngk03O4RTy5kS0fX_-32" target="VgIngk03O4RTy5kS0fX_-45" edge="1">
          <mxGeometry relative="1" as="geometry" />
        </mxCell>
        <mxCell id="VgIngk03O4RTy5kS0fX_-64" value="(1,1)" style="rounded=0;orthogonalLoop=1;jettySize=auto;html=1;entryX=0;entryY=0;entryDx=0;entryDy=0;dashed=1;endArrow=none;endFill=0;startArrow=classic;startFill=1;" parent="1" source="VgIngk03O4RTy5kS0fX_-32" target="VgIngk03O4RTy5kS0fX_-57" edge="1">
          <mxGeometry relative="1" as="geometry" />
        </mxCell>
        <mxCell id="VgIngk03O4RTy5kS0fX_-32" value="Shift" style="whiteSpace=wrap;html=1;align=center;dashed=1;" parent="1" vertex="1">
          <mxGeometry x="989" y="810" width="100" height="40" as="geometry" />
        </mxCell>
        <mxCell id="VgIngk03O4RTy5kS0fX_-33" value="morning_shift_end" style="ellipse;whiteSpace=wrap;html=1;align=center;fontStyle=0;" parent="1" vertex="1">
          <mxGeometry x="590" y="765" width="130" height="40" as="geometry" />
        </mxCell>
        <mxCell id="VgIngk03O4RTy5kS0fX_-34" value="evening_shift_end" style="ellipse;whiteSpace=wrap;html=1;align=center;fontStyle=0;" parent="1" vertex="1">
          <mxGeometry x="570" y="880" width="130" height="40" as="geometry" />
        </mxCell>
        <mxCell id="VgIngk03O4RTy5kS0fX_-35" value="evening_shift_start" style="ellipse;whiteSpace=wrap;html=1;align=center;fontStyle=0;" parent="1" vertex="1">
          <mxGeometry x="380" y="878" width="130" height="40" as="geometry" />
        </mxCell>
        <mxCell id="VgIngk03O4RTy5kS0fX_-36" style="rounded=0;orthogonalLoop=1;jettySize=auto;html=1;exitX=0.75;exitY=0;exitDx=0;exitDy=0;entryX=0;entryY=1;entryDx=0;entryDy=0;endArrow=none;endFill=0;" parent="1" source="_UK4-lh9YkA2kkaVZ_zC-144" target="VgIngk03O4RTy5kS0fX_-33" edge="1">
          <mxGeometry relative="1" as="geometry">
            <mxPoint x="520" y="820" as="sourcePoint" />
            <mxPoint x="505" y="780" as="targetPoint" />
          </mxGeometry>
        </mxCell>
        <mxCell id="VgIngk03O4RTy5kS0fX_-37" style="rounded=0;orthogonalLoop=1;jettySize=auto;html=1;exitX=0.75;exitY=1;exitDx=0;exitDy=0;entryX=0;entryY=0;entryDx=0;entryDy=0;endArrow=none;endFill=0;" parent="1" source="_UK4-lh9YkA2kkaVZ_zC-144" target="VgIngk03O4RTy5kS0fX_-34" edge="1">
          <mxGeometry relative="1" as="geometry">
            <mxPoint x="520" y="820" as="sourcePoint" />
            <mxPoint x="505" y="780" as="targetPoint" />
          </mxGeometry>
        </mxCell>
        <mxCell id="VgIngk03O4RTy5kS0fX_-39" style="rounded=0;orthogonalLoop=1;jettySize=auto;html=1;exitX=0.25;exitY=1;exitDx=0;exitDy=0;entryX=0.746;entryY=0;entryDx=0;entryDy=0;endArrow=none;endFill=0;exitPerimeter=0;entryPerimeter=0;" parent="1" source="_UK4-lh9YkA2kkaVZ_zC-144" target="VgIngk03O4RTy5kS0fX_-35" edge="1">
          <mxGeometry relative="1" as="geometry">
            <mxPoint x="570" y="860" as="sourcePoint" />
            <mxPoint x="599" y="896" as="targetPoint" />
          </mxGeometry>
        </mxCell>
        <mxCell id="VgIngk03O4RTy5kS0fX_-41" value="(1,1)" style="rounded=0;orthogonalLoop=1;jettySize=auto;html=1;entryX=1;entryY=0.5;entryDx=0;entryDy=0;dashed=1;" parent="1" source="VgIngk03O4RTy5kS0fX_-40" target="_UK4-lh9YkA2kkaVZ_zC-144" edge="1">
          <mxGeometry relative="1" as="geometry" />
        </mxCell>
        <mxCell id="VgIngk03O4RTy5kS0fX_-40" value="takes place in" style="shape=rhombus;perimeter=rhombusPerimeter;whiteSpace=wrap;html=1;align=center;dashed=1;" parent="1" vertex="1">
          <mxGeometry x="705" y="800" width="120" height="60" as="geometry" />
        </mxCell>
        <mxCell id="VgIngk03O4RTy5kS0fX_-46" style="rounded=0;orthogonalLoop=1;jettySize=auto;html=1;entryX=0.5;entryY=0;entryDx=0;entryDy=0;endArrow=none;endFill=0;exitX=0.5;exitY=1;exitDx=0;exitDy=0;" parent="1" source="VgIngk03O4RTy5kS0fX_-70" target="VgIngk03O4RTy5kS0fX_-32" edge="1">
          <mxGeometry relative="1" as="geometry">
            <mxPoint x="1047" y="780" as="sourcePoint" />
          </mxGeometry>
        </mxCell>
        <mxCell id="VgIngk03O4RTy5kS0fX_-45" value="is_approved" style="ellipse;whiteSpace=wrap;html=1;align=center;fontStyle=0" parent="1" vertex="1">
          <mxGeometry x="889" y="860" width="100" height="40" as="geometry" />
        </mxCell>
        <mxCell id="VgIngk03O4RTy5kS0fX_-108" style="rounded=0;orthogonalLoop=1;jettySize=auto;html=1;entryX=0.5;entryY=0;entryDx=0;entryDy=0;endArrow=none;endFill=0;" parent="1" source="VgIngk03O4RTy5kS0fX_-49" target="VgIngk03O4RTy5kS0fX_-105" edge="1">
          <mxGeometry relative="1" as="geometry" />
        </mxCell>
        <mxCell id="VgIngk03O4RTy5kS0fX_-49" value="ShiftCancel" style="whiteSpace=wrap;html=1;align=center;dashed=1;" parent="1" vertex="1">
          <mxGeometry x="1019" y="970" width="100" height="40" as="geometry" />
        </mxCell>
        <mxCell id="VgIngk03O4RTy5kS0fX_-107" style="rounded=0;orthogonalLoop=1;jettySize=auto;html=1;entryX=0.5;entryY=0;entryDx=0;entryDy=0;endArrow=none;endFill=0;" parent="1" source="VgIngk03O4RTy5kS0fX_-51" target="VgIngk03O4RTy5kS0fX_-106" edge="1">
          <mxGeometry relative="1" as="geometry" />
        </mxCell>
        <mxCell id="VgIngk03O4RTy5kS0fX_-51" value="ShiftActivity" style="whiteSpace=wrap;html=1;align=center;dashed=1;" parent="1" vertex="1">
          <mxGeometry x="869" y="970" width="100" height="40" as="geometry" />
        </mxCell>
        <mxCell id="VgIngk03O4RTy5kS0fX_-96" value="(1,1)" style="rounded=0;orthogonalLoop=1;jettySize=auto;html=1;entryX=0.5;entryY=1;entryDx=0;entryDy=0;endArrow=none;endFill=0;exitX=0.75;exitY=0;exitDx=0;exitDy=0;" parent="1" source="VgIngk03O4RTy5kS0fX_-54" target="VgIngk03O4RTy5kS0fX_-95" edge="1">
          <mxGeometry relative="1" as="geometry">
            <mxPoint x="1378" y="865" as="sourcePoint" />
          </mxGeometry>
        </mxCell>
        <mxCell id="VgIngk03O4RTy5kS0fX_-54" value="ShiftRole" style="whiteSpace=wrap;html=1;align=center;dashed=1;" parent="1" vertex="1">
          <mxGeometry x="1225" y="880" width="100" height="40" as="geometry" />
        </mxCell>
        <mxCell id="VgIngk03O4RTy5kS0fX_-94" value="(1,1)" style="rounded=0;orthogonalLoop=1;jettySize=auto;html=1;entryX=0.5;entryY=1;entryDx=0;entryDy=0;endArrow=none;endFill=0;exitX=0.5;exitY=0;exitDx=0;exitDy=0;" parent="1" source="VgIngk03O4RTy5kS0fX_-54" target="VgIngk03O4RTy5kS0fX_-93" edge="1">
          <mxGeometry relative="1" as="geometry">
            <mxPoint x="1279" y="880" as="sourcePoint" />
          </mxGeometry>
        </mxCell>
        <mxCell id="VgIngk03O4RTy5kS0fX_-57" value="contained in" style="shape=rhombus;perimeter=rhombusPerimeter;whiteSpace=wrap;html=1;align=center;dashed=1;" parent="1" vertex="1">
          <mxGeometry x="1079" y="875" width="100" height="50" as="geometry" />
        </mxCell>
        <mxCell id="VgIngk03O4RTy5kS0fX_-59" value="amount" style="ellipse;whiteSpace=wrap;html=1;align=center;fontStyle=0" parent="1" vertex="1">
          <mxGeometry x="1300" y="950" width="100" height="40" as="geometry" />
        </mxCell>
        <mxCell id="VgIngk03O4RTy5kS0fX_-61" style="rounded=0;orthogonalLoop=1;jettySize=auto;html=1;endArrow=none;endFill=0;exitX=0.25;exitY=1;exitDx=0;exitDy=0;entryX=1;entryY=0;entryDx=0;entryDy=0;" parent="1" source="VgIngk03O4RTy5kS0fX_-54" target="VgIngk03O4RTy5kS0fX_-79" edge="1">
          <mxGeometry relative="1" as="geometry">
            <mxPoint x="1018" y="860" as="sourcePoint" />
            <mxPoint x="1137" y="1040" as="targetPoint" />
          </mxGeometry>
        </mxCell>
        <mxCell id="VgIngk03O4RTy5kS0fX_-62" style="rounded=0;orthogonalLoop=1;jettySize=auto;html=1;endArrow=none;endFill=0;exitX=0.75;exitY=1;exitDx=0;exitDy=0;entryX=0;entryY=0;entryDx=0;entryDy=0;" parent="1" source="VgIngk03O4RTy5kS0fX_-54" target="VgIngk03O4RTy5kS0fX_-59" edge="1">
          <mxGeometry relative="1" as="geometry">
            <mxPoint x="1314" y="1020" as="sourcePoint" />
            <mxPoint x="1304" y="1052" as="targetPoint" />
          </mxGeometry>
        </mxCell>
        <mxCell id="VgIngk03O4RTy5kS0fX_-68" value="&lt;span style=&quot;border-bottom: 1px dotted&quot;&gt;shift_date&lt;/span&gt;" style="ellipse;whiteSpace=wrap;html=1;align=center;" parent="1" vertex="1">
          <mxGeometry x="889" y="746" width="100" height="40" as="geometry" />
        </mxCell>
        <mxCell id="VgIngk03O4RTy5kS0fX_-70" value="&lt;span style=&quot;border-bottom: 1px dotted&quot;&gt;shift_type&lt;br&gt;&lt;/span&gt;" style="ellipse;whiteSpace=wrap;html=1;align=center;" parent="1" vertex="1">
          <mxGeometry x="997" y="746" width="100" height="40" as="geometry" />
        </mxCell>
        <mxCell id="VgIngk03O4RTy5kS0fX_-71" value="(1,n)" style="rounded=0;orthogonalLoop=1;jettySize=auto;html=1;entryX=0;entryY=0.5;entryDx=0;entryDy=0;dashed=1;endArrow=none;endFill=0;exitX=1;exitY=0.5;exitDx=0;exitDy=0;" parent="1" source="VgIngk03O4RTy5kS0fX_-57" target="VgIngk03O4RTy5kS0fX_-54" edge="1">
          <mxGeometry relative="1" as="geometry">
            <mxPoint x="1164" y="883" as="sourcePoint" />
            <mxPoint x="1249" y="830" as="targetPoint" />
          </mxGeometry>
        </mxCell>
        <mxCell id="VgIngk03O4RTy5kS0fX_-75" value="(0,n)" style="rounded=0;orthogonalLoop=1;jettySize=auto;html=1;entryX=0.75;entryY=0;entryDx=0;entryDy=0;dashed=1;endArrow=none;endFill=0;exitX=0.38;exitY=0.88;exitDx=0;exitDy=0;exitPerimeter=0;" parent="1" source="VgIngk03O4RTy5kS0fX_-57" target="VgIngk03O4RTy5kS0fX_-49" edge="1">
          <mxGeometry relative="1" as="geometry">
            <mxPoint x="1139" y="920" as="sourcePoint" />
            <mxPoint x="1143" y="980" as="targetPoint" />
          </mxGeometry>
        </mxCell>
        <mxCell id="VgIngk03O4RTy5kS0fX_-76" value="(0,n)" style="rounded=0;orthogonalLoop=1;jettySize=auto;html=1;entryX=1;entryY=0;entryDx=0;entryDy=0;dashed=1;endArrow=none;endFill=0;exitX=0.09;exitY=0.58;exitDx=0;exitDy=0;exitPerimeter=0;" parent="1" source="VgIngk03O4RTy5kS0fX_-57" target="VgIngk03O4RTy5kS0fX_-51" edge="1">
          <mxGeometry relative="1" as="geometry">
            <mxPoint x="1084.5" y="890" as="sourcePoint" />
            <mxPoint x="1019.5" y="962" as="targetPoint" />
          </mxGeometry>
        </mxCell>
        <mxCell id="VgIngk03O4RTy5kS0fX_-79" value="&lt;span style=&quot;border-bottom: 1px dotted&quot;&gt;role&lt;/span&gt;" style="ellipse;whiteSpace=wrap;html=1;align=center;" parent="1" vertex="1">
          <mxGeometry x="1160" y="950" width="100" height="40" as="geometry" />
        </mxCell>
        <mxCell id="VgIngk03O4RTy5kS0fX_-83" value="&lt;span style=&quot;border-bottom: 1px dotted&quot;&gt;role&lt;br&gt;&lt;/span&gt;" style="ellipse;whiteSpace=wrap;html=1;align=center;" parent="1" vertex="1">
          <mxGeometry x="969" y="590" width="100" height="40" as="geometry" />
        </mxCell>
        <mxCell id="VgIngk03O4RTy5kS0fX_-89" value="(1,1)" style="rounded=0;orthogonalLoop=1;jettySize=auto;html=1;entryX=0;entryY=0.5;entryDx=0;entryDy=0;endArrow=none;endFill=0;dashed=1;startArrow=classic;startFill=1;" parent="1" source="VgIngk03O4RTy5kS0fX_-84" target="VgIngk03O4RTy5kS0fX_-86" edge="1">
          <mxGeometry relative="1" as="geometry" />
        </mxCell>
        <mxCell id="VgIngk03O4RTy5kS0fX_-84" value="User" style="whiteSpace=wrap;html=1;align=center;" parent="1" vertex="1">
          <mxGeometry x="1194" y="131" width="100" height="40" as="geometry" />
        </mxCell>
        <mxCell id="VgIngk03O4RTy5kS0fX_-90" value="(0,n)" style="rounded=0;orthogonalLoop=1;jettySize=auto;html=1;entryX=0.5;entryY=0;entryDx=0;entryDy=0;dashed=1;endArrow=none;endFill=0;" parent="1" source="VgIngk03O4RTy5kS0fX_-86" target="VgIngk03O4RTy5kS0fX_-87" edge="1">
          <mxGeometry relative="1" as="geometry" />
        </mxCell>
        <mxCell id="VgIngk03O4RTy5kS0fX_-86" value="belongs to" style="shape=rhombus;perimeter=rhombusPerimeter;whiteSpace=wrap;html=1;align=center;dashed=1;" parent="1" vertex="1">
          <mxGeometry x="1390" y="125" width="100" height="52" as="geometry" />
        </mxCell>
        <mxCell id="VgIngk03O4RTy5kS0fX_-116" style="rounded=0;orthogonalLoop=1;jettySize=auto;html=1;entryX=0;entryY=0.5;entryDx=0;entryDy=0;endArrow=none;endFill=0;" parent="1" source="VgIngk03O4RTy5kS0fX_-87" target="VgIngk03O4RTy5kS0fX_-115" edge="1">
          <mxGeometry relative="1" as="geometry" />
        </mxCell>
        <mxCell id="VgIngk03O4RTy5kS0fX_-87" value="UserAuthorization" style="whiteSpace=wrap;html=1;align=center;dashed=1;" parent="1" vertex="1">
          <mxGeometry x="1370" y="240" width="140" height="40" as="geometry" />
        </mxCell>
        <mxCell id="VgIngk03O4RTy5kS0fX_-88" style="edgeStyle=orthogonalEdgeStyle;rounded=0;orthogonalLoop=1;jettySize=auto;html=1;exitX=0.5;exitY=1;exitDx=0;exitDy=0;" parent="1" source="VgIngk03O4RTy5kS0fX_-87" target="VgIngk03O4RTy5kS0fX_-87" edge="1">
          <mxGeometry relative="1" as="geometry" />
        </mxCell>
        <mxCell id="VgIngk03O4RTy5kS0fX_-93" value="ShiftWorker" style="shape=rhombus;perimeter=rhombusPerimeter;whiteSpace=wrap;html=1;align=center;" parent="1" vertex="1">
          <mxGeometry x="1218" y="609.16" width="114" height="60" as="geometry" />
        </mxCell>
        <mxCell id="VgIngk03O4RTy5kS0fX_-100" value="(0.n)" style="rounded=0;orthogonalLoop=1;jettySize=auto;html=1;entryX=0.75;entryY=1;entryDx=0;entryDy=0;endArrow=none;endFill=0;" parent="1" source="VgIngk03O4RTy5kS0fX_-95" target="_UK4-lh9YkA2kkaVZ_zC-138" edge="1">
          <mxGeometry relative="1" as="geometry" />
        </mxCell>
        <mxCell id="VgIngk03O4RTy5kS0fX_-95" value="ShiftRequest" style="shape=rhombus;perimeter=rhombusPerimeter;whiteSpace=wrap;html=1;align=center;" parent="1" vertex="1">
          <mxGeometry x="1339" y="609.16" width="120" height="60" as="geometry" />
        </mxCell>
        <mxCell id="VgIngk03O4RTy5kS0fX_-99" value="(0,n)" style="rounded=0;orthogonalLoop=1;jettySize=auto;html=1;entryX=0.66;entryY=1.025;entryDx=0;entryDy=0;endArrow=none;endFill=0;entryPerimeter=0;exitX=0.5;exitY=0;exitDx=0;exitDy=0;" parent="1" source="VgIngk03O4RTy5kS0fX_-93" target="_UK4-lh9YkA2kkaVZ_zC-138" edge="1">
          <mxGeometry relative="1" as="geometry">
            <mxPoint x="1194" y="800" as="sourcePoint" />
            <mxPoint x="1194" y="730" as="targetPoint" />
          </mxGeometry>
        </mxCell>
        <mxCell id="VgIngk03O4RTy5kS0fX_-105" value="&lt;span style=&quot;border-bottom: 1px dotted&quot;&gt;cancel_action&lt;/span&gt;" style="ellipse;whiteSpace=wrap;html=1;align=center;" parent="1" vertex="1">
          <mxGeometry x="1019" y="1040" width="100" height="40" as="geometry" />
        </mxCell>
        <mxCell id="VgIngk03O4RTy5kS0fX_-106" value="&lt;span style=&quot;border-bottom: 1px dotted&quot;&gt;activity&lt;/span&gt;" style="ellipse;whiteSpace=wrap;html=1;align=center;" parent="1" vertex="1">
          <mxGeometry x="869" y="1040" width="100" height="40" as="geometry" />
        </mxCell>
        <mxCell id="VgIngk03O4RTy5kS0fX_-109" value="password" style="ellipse;whiteSpace=wrap;html=1;align=center;fontStyle=4;" parent="1" vertex="1">
          <mxGeometry x="1244" y="59" width="80" height="35" as="geometry" />
        </mxCell>
        <mxCell id="VgIngk03O4RTy5kS0fX_-110" value="username" style="ellipse;whiteSpace=wrap;html=1;align=center;fontStyle=4;" parent="1" vertex="1">
          <mxGeometry x="1144" y="59" width="80" height="35" as="geometry" />
        </mxCell>
        <mxCell id="VgIngk03O4RTy5kS0fX_-111" style="rounded=0;orthogonalLoop=1;jettySize=auto;html=1;entryX=0.25;entryY=0;entryDx=0;entryDy=0;endArrow=none;endFill=0;" parent="1" source="VgIngk03O4RTy5kS0fX_-110" target="VgIngk03O4RTy5kS0fX_-84" edge="1">
          <mxGeometry relative="1" as="geometry">
            <mxPoint x="1004" y="451" as="sourcePoint" />
            <mxPoint x="1073" y="506" as="targetPoint" />
          </mxGeometry>
        </mxCell>
        <mxCell id="VgIngk03O4RTy5kS0fX_-112" style="rounded=0;orthogonalLoop=1;jettySize=auto;html=1;endArrow=none;endFill=0;exitX=0.5;exitY=1;exitDx=0;exitDy=0;" parent="1" source="VgIngk03O4RTy5kS0fX_-109" edge="1">
          <mxGeometry relative="1" as="geometry">
            <mxPoint x="1205" y="103" as="sourcePoint" />
            <mxPoint x="1264" y="129" as="targetPoint" />
          </mxGeometry>
        </mxCell>
        <mxCell id="VgIngk03O4RTy5kS0fX_-115" value="&lt;span style=&quot;border-bottom: 1px dotted&quot;&gt;authorization&lt;/span&gt;" style="ellipse;whiteSpace=wrap;html=1;align=center;" parent="1" vertex="1">
          <mxGeometry x="1200" y="240" width="100" height="40" as="geometry" />
        </mxCell>
        <mxCell id="VgIngk03O4RTy5kS0fX_-122" value="(0,m)" style="rounded=0;orthogonalLoop=1;jettySize=auto;html=1;entryX=0.25;entryY=1;entryDx=0;entryDy=0;endArrow=none;endFill=0;" parent="1" source="VgIngk03O4RTy5kS0fX_-117" target="_UK4-lh9YkA2kkaVZ_zC-138" edge="1">
          <mxGeometry relative="1" as="geometry" />
        </mxCell>
        <mxCell id="VgIngk03O4RTy5kS0fX_-117" value="BranchEmployee" style="shape=rhombus;perimeter=rhombusPerimeter;whiteSpace=wrap;html=1;align=center;" parent="1" vertex="1">
          <mxGeometry x="630.5" y="640" width="129" height="70" as="geometry" />
        </mxCell>
      </root>
    </mxGraphModel>
  </diagram>
</mxfile>
